<svg width="90" height="29" fill="none" xmlns="http://www.w3.org/2000/svg"><path fill-rule="evenodd" clip-rule="evenodd" d="M21.037 1.16v20.485c0 .27.09.497.272.68a.917.917 0 00.677.273h3.485c.27 0 .495-.091.677-.273a.925.925 0 00.272-.68v-9.397c1.483-1.49 2.873-2.822 4.17-2.822 1.981 0 2.972.76 2.972 3.25v8.969c0 .27.09.497.272.68a.917.917 0 00.677.273h3.47a.936.936 0 00.965-.953v-8.969c0-2.542-.633-4.43-1.899-5.664-1.265-1.234-2.907-1.852-4.924-1.852-2.018 0-3.919.756-5.703 2.266V1.16a.944.944 0 00-.272-.695.917.917 0 00-.677-.273h-3.485a.917.917 0 00-.677.273.944.944 0 00-.273.695zM2.396 20.63C.798 19.107 0 16.917 0 14.058c0-2.86.804-5.057 2.412-6.594C4.02 5.93 6.25 5.16 9.102 5.16c2.853 0 5.078.748 6.675 2.243 1.598 1.494 2.397 3.638 2.397 6.43v.89c0 .281-.091.513-.273.695a.936.936 0 01-.692.274H5.493c.103 1.28.469 2.213 1.096 2.796.628.584 1.632.875 3.011.875 1.38 0 2.324-.312 2.832-.937s1.482-.53 2.984-.319c1.503.211 1.841 1.006 1.793 1.256-.477 2.462-2.973 3.557-8.122 3.547-2.863 0-5.093-.76-6.69-2.28zm3.064-8.235h7.236c-.104-2.459-1.305-3.688-3.602-3.688-2.298 0-3.51 1.23-3.634 3.688zm40.315 11.828l2.038.265c1.239 0 2.16-.772 2.767-2.317.011-.028-.078-.042-.242-.07-.627-.101-2.355-.382-3.863-2.271-1.728-2.165-1.985-3-2.654-5.18v-.001l-.218-.705-2.319-7.547a.824.824 0 01-.046-.289c0-.109.065-.242.194-.398.13-.156.324-.24.584-.25l3.059.013c.3 0 .589.101.864.305.274.203.453.455.536.757l2.039 6.625c.508 1.625 1.024 2.75 1.548 3.375s1.143.938 1.86.938l3.096-10.938c.083-.302.246-.554.49-.757.243-.204.516-.305.817-.305h3.283c.259 0 .45.083.575.25.125.167.187.305.187.414 0 .11-.01.2-.031.273l-4.077 14.594c-.726 2.583-1.626 4.427-2.7 5.531-1.073 1.105-2.455 1.657-4.146 1.657l-.65-.004c-1.35-.014-2.33-.075-2.936-.184-.7-.125-1.139-.279-1.315-.46a.883.883 0 01-.265-.634v-1.718a.96.96 0 01.265-.696.91.91 0 01.684-.273h.576zm16.369-2.75c-1.37-.958-2.054-2.313-2.054-4.063 0-1.75.687-3.093 2.062-4.03 1.374-.938 3.145-1.407 5.313-1.407h5.15c0-1.219-.254-2.068-.762-2.547-.508-.48-1.398-.719-2.668-.719-1.187 0-2.043.275-2.569.824l-.108.122c-.513.63-2.13.415-3.572.138-1.444-.278-1.537-1.015-1.408-1.398.724-2.155 3.486-3.233 8.287-3.233 2.468 0 4.45.555 5.943 1.664C77.253 7.934 78 9.65 78 11.973v9.672c0 .281-.088.51-.264.687a.924.924 0 01-.685.266h-3.003a.91.91 0 01-.685-.273.94.94 0 01-.264-.68v-.485c-1.64 1.177-3.53 1.763-5.672 1.758-2.142-.005-3.903-.487-5.282-1.445zm5.695-5.953h4.776v2.437c-1.483.938-3.023 1.406-4.62 1.406-.8 0-1.417-.182-1.852-.546a1.735 1.735 0 01-.654-1.391c0-.563.21-1.02.63-1.375.42-.354.993-.531 1.72-.531z" fill="url(#prefix__paint0_linear)"/><path fill-rule="evenodd" clip-rule="evenodd" d="M86 14.192a4 4 0 100-8 4 4 0 000 8z" fill="#1576D8"/><defs><linearGradient id="prefix__paint0_linear" x1="0" y1=".192" x2="0" y2="28.192" gradientUnits="userSpaceOnUse"><stop stop-color="#254A72"/><stop offset="1" stop-color="#10243E"/></linearGradient></defs></svg>